<?xml version="1.0" encoding="iso-8859-1"?>
<!-- Generator: Adobe Illustrator 19.0.0, SVG Export Plug-In . SVG Version: 6.00 Build 0)  -->
<svg version="1.1" id="Capa_1" xmlns="http://www.w3.org/2000/svg" xmlns:xlink="http://www.w3.org/1999/xlink" x="0px" y="0px"
	 viewBox="0 0 374.519 374.519" style="enable-background:new 0 0 374.519 374.519;" xml:space="preserve">
<path style="fill:#CE7419;" d="M35.555,309.7h303.36c11.62,0,21.04,9.42,21.04,21.04v0c0,11.62-9.42,21.04-21.04,21.04H35.555
	c-11.62,0-21.04-9.42-21.04-21.04v0C14.515,319.12,23.935,309.7,35.555,309.7z"/>
<g>
	<g>
		<path style="fill:#FCBA29;" d="M187.235,22.74l14.88,19.76l14.88,19.76l-14.88,19.76l-14.88,19.76l-14.88-19.76l-14.8-19.76
			l14.8-19.76L187.235,22.74z"/>
		<path style="fill:#FCBA29;" d="M32.355,93.46l13.68,11.36l13.68,11.36l-7.12,16.32l-7.12,16.32l-13.68-11.36l-13.68-11.36
			l7.12-16.32L32.355,93.46z"/>
		<path style="fill:#FCBA29;" d="M342.115,93.46l-13.68,11.36l-13.68,11.36l7.12,16.32l7.12,16.32l13.68-11.36l13.68-11.36
			l-7.12-16.32L342.115,93.46z"/>
		<path style="fill:#FCBA29;" d="M187.235,105.14c-178.48,0-59.28,204.56-59.28,204.56h118.56
			C246.515,309.7,365.715,105.14,187.235,105.14L187.235,105.14z"/>
	</g>
	<g>
		<path style="fill:#E99A23;" d="M187.235,309.7h59.28c0,0,119.2-204.56-59.28-204.56V309.7z"/>
		<path style="fill:#E99A23;" d="M127.955,309.7c0,0-60.72-104-30.48-163.92c-177.28,0.48-58.56,163.92-58.56,163.92H127.955z"/>
	</g>
	<path style="fill:#FCBA29;" d="M277.075,145.78c30.24,59.68-30.48,163.92-30.48,163.92h88.96
		C335.555,309.7,454.355,146.26,277.075,145.78L277.075,145.78z"/>
</g>
<g>
</g>
<g>
</g>
<g>
</g>
<g>
</g>
<g>
</g>
<g>
</g>
<g>
</g>
<g>
</g>
<g>
</g>
<g>
</g>
<g>
</g>
<g>
</g>
<g>
</g>
<g>
</g>
<g>
</g>
</svg>
